<?xml version="1.0" encoding="UTF-8"?>
<svg width="180px" height="40px" viewBox="0 0 180 40" version="1.1" xmlns="http://www.w3.org/2000/svg" xmlns:xlink="http://www.w3.org/1999/xlink">
    <!-- Generator: Sketch 51.2 (57519) - http://www.bohemiancoding.com/sketch -->
    <title>_images/_common/Logo/logo-blue-full</title>
    <desc>Created with Sketch.</desc>
    <defs>
        <path d="M7.32538629,0 L32.6746137,5.35749223e-11 C35.2218101,5.35749223e-11 36.1454851,0.265216032 37.076702,0.763236296 C38.0079189,1.26125656 38.7387434,1.99208106 39.2367637,2.92329799 C39.734784,3.85451492 40,4.77818989 40,7.32538628 L40,40 C34.322847,38.1076157 28.3777371,37.1428571 22.3934924,37.1428571 L7.32538629,37.1428571 C4.77818989,37.1428571 3.85451492,36.8776411 2.92329799,36.3796208 C1.99208106,35.8816006 1.26125656,35.1507761 0.763236297,34.2195592 C0.265216032,33.2883422 2.66737743e-10,32.3646673 2.48111373e-10,29.8174709 L0,7.32538628 C-1.86314456e-11,4.77818989 0.265216032,3.85451492 0.763236296,2.92329799 C1.26125656,1.99208106 1.99208106,1.26125656 2.92329799,0.763236296 C3.85451492,0.265216032 4.77818989,1.86365209e-11 7.32538629,0 Z M14.3076,12.2966737 C12.7338667,11.7333474 11.0406,11.4105263 9.26666667,11.4105263 C9.18746667,11.4105263 9.109,11.4176842 9.0298,11.4191158 C9.85186667,9.72484211 11.6133333,8.54951579 13.6608,8.54736842 C13.4686667,7.81797895 13.2398667,7.10218947 12.9780667,6.40214737 C12.9626667,6.40214737 12.9487333,6.4 12.9333333,6.4 C8.88386667,6.4 5.6,9.60458947 5.6,13.5578947 C5.6,15.7181474 5.9102,17.8068211 6.48293333,19.7881263 C7.6372,19.9226947 8.80906667,20 10,20 C11.2591333,20 12.497,19.9133895 13.7143333,19.7630737 C14.1602,18.0043789 14.4,16.1669474 14.4,14.2736842 C14.4,13.6072842 14.3648,12.9487579 14.3076,12.2966737 Z M25.5076,12.2966737 C23.9338667,11.7333474 22.2406,11.4105263 20.4666667,11.4105263 C20.3874667,11.4105263 20.309,11.4176842 20.2298,11.4191158 C21.0518667,9.72484211 22.8133333,8.54951579 24.8608,8.54736842 C24.6686667,7.81797895 24.4398667,7.10218947 24.1780667,6.40214737 C24.1626667,6.40214737 24.1487333,6.4 24.1333333,6.4 C20.0838667,6.4 16.8,9.60458947 16.8,13.5578947 C16.8,15.7181474 17.1102,17.8068211 17.6829333,19.7881263 C18.8372,19.9226947 20.0090667,20 21.2,20 C22.4591333,20 23.697,19.9133895 24.9143333,19.7630737 C25.3602,18.0043789 25.6,16.1669474 25.6,14.2736842 C25.6,13.6072842 25.5648,12.9487579 25.5076,12.2966737 Z" id="path-1"></path>
    </defs>
    <g id="_images/_common/Logo/logo-blue-full" stroke="none" stroke-width="1" fill="none" fill-rule="evenodd">
        <g id="Group">
            <rect id="Rectangle-6" x="56" y="4" width="124" height="32"></rect>
            <path d="M56,32.8 L56,16 L61.6,16 L61.6,32.8 L56,32.8 Z M124.4,7.2 L131.2,7.2 L120.8,23.4775122 L120.8,32.8 L115.2,32.8 L115.2,23.4775122 L104.8,7.2 L111.6,7.2 L118,17.454497 L124.4,7.2 Z M66.4,32.8 L66.4,7.2 L86.4,7.2 L86.4,12.8 L72,12.8 L72,18.4 L84,18.4 L84,24 L72,24 L72,32.8 L66.4,32.8 Z M96,7.2 L96,27.2 L108.8,27.2 L108.8,32.8 L90.4,32.8 L90.4,7.2 L96,7.2 Z M130.4,20 C130.4,12.7100232 136.310023,6.8 143.6,6.8 C150.890514,6.8 156.8,12.7100232 156.8,20 C156.8,27.2899768 150.890514,33.2 143.6,33.2 C136.310023,33.2 130.4,27.2899768 130.4,20 Z M143.6,27.6 C147.797438,27.6 151.2,24.1973138 151.2,19.9997219 C151.2,15.8021299 147.797438,12.4 143.6,12.4 C139.403118,12.4 136,15.8021299 136,19.9997219 C136,24.1973138 139.403118,27.6 143.6,27.6 Z M56,12.8 L56,7.2 L61.6,7.2 L61.6,12.8 L56,12.8 Z M177.181526,14.1472974 C175.811249,13.3895978 174.366103,12.7990479 172.846044,12.3756299 C171.325985,11.9522119 170.031801,11.7587893 168.963454,11.7953564 C167.944797,11.8302226 167.143844,12.0404984 166.560571,12.4261902 C165.977298,12.8118819 165.698246,13.3578258 165.723407,14.0640382 C165.755509,14.9650677 166.208594,15.6383366 167.082675,16.0838648 C167.956756,16.5293931 169.297317,16.9772339 171.104398,17.4274005 C172.911479,17.8775672 174.401761,18.3385695 175.575287,18.8104213 C176.748813,19.282273 177.763728,20.0155515 178.620063,21.0102788 C179.476397,22.005006 179.93449,23.3424988 179.994356,25.0227972 C180.052486,26.6543913 179.661593,28.0758012 178.821664,29.2870695 C177.981736,30.4983379 176.80243,31.4347222 175.283713,32.0962505 C173.764995,32.7577788 172.024273,33.1221281 170.061495,33.1893094 C167.949645,33.261593 165.86208,32.9673232 163.798737,32.3064912 C161.735395,31.6456591 159.935834,30.7076131 158.4,29.492325 L160.579985,24.6998455 C161.938432,25.8236777 163.487375,26.7093481 165.226861,27.3568831 C166.966347,28.0044182 168.544157,28.3039449 169.960339,28.2554724 C171.177758,28.213803 172.120268,27.9621097 172.787897,27.5003851 C173.455525,27.0386606 173.774585,26.3938214 173.745086,25.5658482 C173.72166,24.9083402 173.472541,24.374379 172.997719,23.9639487 C172.522898,23.5535184 171.926679,23.2264894 171.209045,22.9828521 C170.49141,22.7392147 169.505402,22.4681949 168.25099,22.1697846 C166.444777,21.7439701 164.967786,21.3068944 163.819973,20.8585444 C162.672159,20.4101944 161.670534,19.7008425 160.815067,18.7304674 C159.9596,17.7600923 159.502375,16.4469513 159.443377,14.791005 C159.388717,13.2568196 159.763145,11.8969269 160.566674,10.7112863 C161.370202,9.5256457 162.518668,8.59641234 164.012107,7.92355835 C165.505545,7.25070437 167.258473,6.87984191 169.270942,6.81095985 C171.059803,6.74973135 172.832902,6.94504789 174.590292,7.39691535 C176.347683,7.8487828 177.912361,8.47790903 179.284373,9.28431293 L177.181526,14.1472974 Z" id="Combined-Shape" fill="#262626"></path>
            <rect id="Rectangle-3" x="0" y="0" width="40" height="40"></rect>
            <mask id="mask-2" fill="white">
                <use xlink:href="#path-1"></use>
            </mask>
            <use id="Combined-Shape" fill="#1064FA" xlink:href="#path-1"></use>
        </g>
    </g>
</svg>